<svg width="20" height="15" viewBox="0 0 20 15" fill="none" xmlns="http://www.w3.org/2000/svg">
<path d="M11.6636 7.55556C11.6636 8.47256 10.9134 9.22283 9.99635 9.22283C9.07935 9.22283 8.32908 8.47256 8.32908 7.55556C8.32908 6.63856 9.07935 5.88829 9.99635 5.88829C10.9134 5.88829 11.6636 6.63856 11.6636 7.55556ZM7.63716 3.42906C7.14531 2.93721 6.35336 2.93721 5.86985 3.42906C3.59402 5.70489 3.59402 9.40624 5.86985 11.6821C6.1116 11.9238 6.43672 12.0489 6.7535 12.0489C7.07029 12.0489 7.39541 11.9238 7.63716 11.6821C8.12901 11.1902 8.12901 10.3983 7.63716 9.91475C6.33669 8.61428 6.33669 6.49684 7.63716 5.19637C8.12901 4.70452 8.12901 3.91257 7.63716 3.42906ZM14.1229 3.42906C13.631 2.93721 12.8391 2.93721 12.3555 3.42906C11.872 3.9209 11.8637 4.71286 12.3555 5.19637C12.9891 5.82993 13.3309 6.66357 13.3309 7.55556C13.3309 8.44755 12.9808 9.28119 12.3555 9.91475C11.8637 10.4066 11.8637 11.1986 12.3555 11.6821C12.5973 11.9238 12.9224 12.0489 13.2392 12.0489C13.556 12.0489 13.8811 11.9238 14.1229 11.6821C15.2233 10.5817 15.8318 9.11446 15.8318 7.55556C15.8318 5.99666 15.2233 4.52946 14.1229 3.42906ZM4.69442 2.25363C5.18627 1.76178 5.18627 0.969826 4.69442 0.486316C4.20257 -0.00552984 3.41062 -0.00552984 2.92711 0.486316C-0.974313 4.3794 -0.974313 10.7317 2.91877 14.6331C3.16053 14.8749 3.48565 14.9999 3.80243 14.9999C4.11921 14.9999 4.44433 14.8749 4.68608 14.6331C5.17793 14.1413 5.17793 13.3493 4.68608 12.8658C1.76002 9.93976 1.76002 5.17969 4.68608 2.25363H4.69442ZM17.0739 0.486316C16.5821 -0.00552984 15.7901 -0.00552984 15.3066 0.486316C14.8148 0.978162 14.8148 1.77012 15.3066 2.25363C18.2327 5.17969 18.2327 9.93976 15.3066 12.8658C14.8148 13.3577 14.8148 14.1496 15.3066 14.6331C15.5484 14.8749 15.8735 14.9999 16.1903 14.9999C16.5071 14.9999 16.8322 14.8749 17.0739 14.6331C20.9754 10.7317 20.9754 4.38774 17.0739 0.486316Z" fill="white"/>
</svg>
